<?xml version="1.0" encoding="utf-8"?>
<!-- Generator: Adobe Illustrator 16.0.4, SVG Export Plug-In . SVG Version: 6.00 Build 0)  -->
<!DOCTYPE svg PUBLIC "-//W3C//DTD SVG 1.1//EN" "http://www.w3.org/Graphics/SVG/1.1/DTD/svg11.dtd">
<svg version="1.1" id="Layer_1" xmlns="http://www.w3.org/2000/svg" xmlns:xlink="http://www.w3.org/1999/xlink" x="0px" y="0px"
	 width="432px" height="288px" viewBox="0 0 432 288" enable-background="new 0 0 432 288" xml:space="preserve">
<path fill="#7F7F7F" d="M107.312,135.979l-43.345,76.086l5.635,3.21c2.197-3.287,6.59-4.369,10.078-2.381
	c3.489,1.987,4.799,6.318,3.091,9.884l5.514,3.142l43.345-76.087L107.312,135.979z"/>
<path fill="#7F7F7F" d="M100.145,148.646L56.8,224.731l5.635,3.21c2.197-3.287,6.59-4.369,10.078-2.381
	c3.489,1.987,4.799,6.318,3.091,9.884l5.514,3.142l43.345-76.087L100.145,148.646z"/>
<path fill="#FCCF86" d="M182.963,228.229c-3.233-5.707-3.948-12.312-1.598-14.764l43.968-45.784
	c2.351-2.446,6.876,0.194,10.114,5.903l11.706,20.661c3.238,5.706,3.952,12.312,1.604,14.763l-43.969,45.781
	c-2.353,2.444-6.878-0.195-10.112-5.9L182.963,228.229z"/>
<g>
	<path fill="#7F7F7F" d="M75.737,219.909c-6.713-3.823-15.256-1.48-19.08,5.23c-3.824,6.714-1.483,15.258,5.23,19.081
		c6.713,3.824,15.255,1.482,19.079-5.23C84.791,232.277,82.45,223.733,75.737,219.909z M75.421,235.83
		c-2.079,3.649-6.723,4.923-10.373,2.844c-3.649-2.08-4.923-6.724-2.844-10.374c2.08-3.649,6.724-4.923,10.373-2.843
		C76.227,227.536,77.501,232.181,75.421,235.83z"/>
	<g>
		<g>
			<polygon fill="#FBA919" points="144.249,137.304 123.088,137.42 112.404,119.151 122.882,100.765 144.044,100.646 
				154.729,118.915 			"/>
			<path fill="#F1F2F2" d="M137.947,111.349c4.242,2.418,5.722,7.82,3.303,12.064c-2.417,4.246-7.821,5.722-12.065,3.305
				c-4.244-2.418-5.722-7.822-3.304-12.064C128.301,110.41,133.702,108.931,137.947,111.349z"/>
		</g>
		<path fill="#7F7F7F" d="M156.396,119.104l-2.472,4.337l-8.912,15.637l-22.991,0.127l-11.608-19.844l8.913-15.641l2.471-4.336
			l5.275-9.253c-9.813,1.319-18.923,7.034-24.204,16.3c-8.989,15.772-3.492,35.844,12.28,44.83
			c15.772,8.99,35.844,3.491,44.833-12.278c5.281-9.268,5.555-20.017,1.688-29.133L156.396,119.104z"/>
	</g>
</g>
<g>
	<path fill="#FCCF86" d="M117.945,176.394c5.264,3.083,6.88,10.109,3.612,15.689l-15.787,26.942
		c-3.27,5.581-10.188,7.604-15.453,4.519l-24.36-14.273c-5.265-3.085-6.883-10.108-3.614-15.688l15.787-26.944
		c3.271-5.58,10.19-7.604,15.454-4.519L117.945,176.394z"/>
	<path fill="#FCCF86" d="M206.085,253.726c-2.977,3.117-10.135,3.839-15.981,1.613L80.705,213.691
		c-5.848-2.229-8.174-6.559-5.197-9.678l10.784-11.287c2.976-3.123,10.129-3.843,15.977-1.617l109.4,41.647
		c5.846,2.229,8.175,6.558,5.197,9.677L206.085,253.726z"/>
	<path fill="#3152A4" d="M240.297,233.895c-3.733,4.506-10.407,5.135-14.91,1.402l-36.73-30.391
		c-4.506-3.729-5.137-10.407-1.411-14.914l8.068-9.748c3.733-4.505,10.409-5.138,14.92-1.406l36.72,30.389
		c4.512,3.732,5.138,10.412,1.411,14.921L240.297,233.895z"/>
	<circle fill="#3152A4" cx="237.201" cy="186.027" r="32.811"/>
</g>
<g>
	<path fill="#3152A4" d="M71.507,88.475H53.406V75.674h51.803v12.801H86.808v54.604H71.507V88.475z"/>
	<path fill="#3152A4" d="M173.404,110.276c0-7.2-0.2-11.9-0.4-16.101h13.101l0.5,9h0.4c2.5-7.101,8.5-10.101,13.201-10.101
		c1.4,0,2.1,0,3.2,0.2v14.301c-1.1-0.2-2.4-0.4-4.1-0.4c-5.601,0-9.4,3-10.4,7.701c-0.2,1-0.3,2.2-0.3,3.4v24.801h-15.201V110.276z"
		/>
	<path fill="#3152A4" d="M247.306,141.878c-2.7,1.2-7.801,2.2-13.601,2.2c-15.802,0-25.902-9.601-25.902-25.001
		c0-14.301,9.8-26.001,28.001-26.001c4,0,8.4,0.7,11.601,1.9l-2.399,11.301c-1.801-0.8-4.501-1.5-8.501-1.5
		c-8.001,0-13.201,5.7-13.101,13.701c0,9,6,13.701,13.4,13.701c3.601,0,6.4-0.6,8.701-1.5L247.306,141.878z"/>
	<path fill="#3152A4" d="M256.202,76.575c5.601-0.9,12.9-1.4,20.601-1.4c12.801,0,21.102,2.3,27.603,7.201
		c7,5.2,11.4,13.501,11.4,25.401c0,12.901-4.7,21.801-11.201,27.302c-7.1,5.9-17.9,8.701-31.102,8.701c-7.9,0-13.501-0.5-17.301-1
		V76.575z M271.503,131.578c1.3,0.3,3.4,0.3,5.3,0.3c13.802,0.1,22.802-7.5,22.802-23.602c0.101-14.001-8.101-21.401-21.201-21.401
		c-3.4,0-5.601,0.3-6.9,0.6V131.578z"/>
	<path fill="#3152A4" d="M325.802,76.575c4-0.8,12.101-1.4,19.701-1.4c9.301,0,15.001,0.9,19.901,3.8
		c4.7,2.5,8.101,7.101,8.101,13.201c0,6-3.501,11.601-11.101,14.401v0.2c7.7,2.1,13.4,7.9,13.4,16.601c0,6.1-2.8,10.901-7,14.301
		c-4.9,3.9-13.102,6.101-26.502,6.101c-7.501,0-13.101-0.5-16.501-1V76.575z M340.902,102.376h5c8.001,0,12.301-3.3,12.301-8.3
		c0-5.101-3.899-7.8-10.8-7.8c-3.301,0-5.201,0.2-6.501,0.4V102.376z M340.902,132.278c1.5,0.2,3.301,0.2,5.9,0.2
		c6.9,0,13.001-2.6,13.001-9.701c0-6.8-6.101-9.5-13.701-9.5h-5.2V132.278z"/>
</g>
<g>
	<g>
		<path fill="#FBA919" d="M393.327,124.79c17.462-17.338,17.993-45.529,0.985-63.499c-17.007-17.97-45.184-18.992-63.457-2.514
			L393.327,124.79z"/>
		
			<ellipse transform="matrix(0.6874 0.7263 -0.7263 0.6874 176.8218 -231.7805)" fill="#FBA919" cx="357.645" cy="89.504" rx="60.72" ry="5.546"/>
	</g>
</g>
<rect x="90.163" y="199.446" transform="matrix(0.9781 0.2079 -0.2079 0.9781 46.1995 -25.0318)" fill="#FCCF86" width="104" height="15.572"/>
</svg>
