<?xml version="1.0" encoding="utf-8"?>
<!-- Generator: Adobe Illustrator 16.0.4, SVG Export Plug-In . SVG Version: 6.00 Build 0)  -->
<!DOCTYPE svg PUBLIC "-//W3C//DTD SVG 1.1//EN" "http://www.w3.org/Graphics/SVG/1.1/DTD/svg11.dtd">
<svg version="1.1" id="Layer_1" xmlns="http://www.w3.org/2000/svg" xmlns:xlink="http://www.w3.org/1999/xlink" x="0px" y="0px"
	 width="432px" height="288px" viewBox="0 0 432 288" enable-background="new 0 0 432 288" xml:space="preserve">
<g>
	<g>
		<g>
			<g>
				<polygon fill="#FBA919" points="144.249,137.304 123.088,137.42 112.404,119.151 122.882,100.765 144.044,100.646 
					154.729,118.915 				"/>
				<path fill="#F1F2F2" d="M137.947,111.349c4.242,2.418,5.722,7.82,3.303,12.064c-2.417,4.246-7.821,5.722-12.065,3.305
					c-4.244-2.418-5.722-7.822-3.304-12.064C128.301,110.41,133.702,108.931,137.947,111.349z"/>
			</g>
			<path fill="#7F7F7F" d="M156.396,119.104l-2.472,4.337l-8.912,15.637l-22.991,0.127l-11.608-19.844l8.913-15.641l2.471-4.336
				l5.275-9.253c-9.813,1.319-18.923,7.034-24.204,16.3c-8.989,15.772-3.492,35.844,12.28,44.83
				c15.772,8.99,35.844,3.491,44.833-12.278c5.281-9.268,5.555-20.017,1.688-29.133L156.396,119.104z"/>
		</g>
		<g>
			
				<rect x="46.752" y="170.923" transform="matrix(0.495 -0.8689 0.8689 0.495 -114.0002 176.3693)" fill="#7F7F7F" width="95.949" height="30.667"/>
			<g>
				<circle fill="#7F7F7F" cx="70.819" cy="228.387" r="15.329"/>
				<circle fill="#F1F2F2" cx="70.819" cy="228.387" r="8.333"/>
			</g>
		</g>
	</g>
	<g>
		<path fill="#FCCF86" d="M125.378,165.747c5.717,3.349,7.473,10.979,3.923,17.04l-17.146,29.263
			c-3.551,6.062-11.066,8.258-16.783,4.907l-26.458-15.502c-5.718-3.351-7.476-10.979-3.925-17.04l17.146-29.264
			c3.552-6.061,11.067-8.259,16.784-4.908L125.378,165.747z"/>
		<path fill="#FCCF86" d="M220.102,228.935c-4.202,5.167-12.045,8.472-17.512,7.384l-102.31-20.354
			c-5.468-1.089-6.493-6.157-2.29-11.326l15.22-18.706c4.203-5.169,12.041-8.472,17.51-7.384L233.029,198.9
			c5.467,1.091,6.496,6.159,2.291,11.326L220.102,228.935z"/>
		<path fill="#3152A4" d="M227.03,241.624c-5.44,3.283-12.511,1.535-15.795-3.904l-26.755-44.328
			c-3.283-5.439-1.535-12.512,3.906-15.797l11.765-7.099c5.44-3.283,12.514-1.537,15.798,3.904l26.751,44.326
			c3.285,5.439,1.535,12.514-3.904,15.797L227.03,241.624z"/>
		<circle fill="#3152A4" cx="240.11" cy="191.454" r="35.636"/>
	</g>
</g>
<g>
	<path fill="#3152A4" d="M71.507,88.475H53.406V75.674h51.803v12.801H86.808v54.604H71.507V88.475z"/>
	<path fill="#3152A4" d="M173.404,110.276c0-7.2-0.2-11.9-0.4-16.101h13.101l0.5,9h0.4c2.5-7.101,8.5-10.101,13.201-10.101
		c1.4,0,2.1,0,3.2,0.2v14.301c-1.1-0.2-2.4-0.4-4.1-0.4c-5.601,0-9.4,3-10.4,7.701c-0.2,1-0.3,2.2-0.3,3.4v24.801h-15.201V110.276z"
		/>
	<path fill="#3152A4" d="M247.306,141.878c-2.7,1.2-7.801,2.2-13.601,2.2c-15.802,0-25.902-9.601-25.902-25.001
		c0-14.301,9.8-26.001,28.001-26.001c4,0,8.4,0.7,11.601,1.9l-2.399,11.301c-1.801-0.8-4.501-1.5-8.501-1.5
		c-8.001,0-13.201,5.7-13.101,13.701c0,9,6,13.701,13.4,13.701c3.601,0,6.4-0.6,8.701-1.5L247.306,141.878z"/>
	<path fill="#3152A4" d="M256.202,76.575c5.601-0.9,12.9-1.4,20.601-1.4c12.801,0,21.102,2.3,27.603,7.201
		c7,5.2,11.4,13.501,11.4,25.401c0,12.901-4.7,21.801-11.201,27.302c-7.1,5.9-17.9,8.701-31.102,8.701c-7.9,0-13.501-0.5-17.301-1
		V76.575z M271.503,131.578c1.3,0.3,3.4,0.3,5.3,0.3c13.802,0.1,22.802-7.5,22.802-23.602c0.101-14.001-8.101-21.401-21.201-21.401
		c-3.4,0-5.601,0.3-6.9,0.6V131.578z"/>
	<path fill="#3152A4" d="M325.802,76.575c4-0.8,12.101-1.4,19.701-1.4c9.301,0,15.001,0.9,19.901,3.8
		c4.7,2.5,8.101,7.101,8.101,13.201c0,6-3.501,11.601-11.101,14.401v0.2c7.7,2.1,13.4,7.9,13.4,16.601c0,6.1-2.8,10.901-7,14.301
		c-4.9,3.9-13.102,6.101-26.502,6.101c-7.501,0-13.101-0.5-16.501-1V76.575z M340.902,102.376h5c8.001,0,12.301-3.3,12.301-8.3
		c0-5.101-3.899-7.8-10.8-7.8c-3.301,0-5.201,0.2-6.501,0.4V102.376z M340.902,132.278c1.5,0.2,3.301,0.2,5.9,0.2
		c6.9,0,13.001-2.6,13.001-9.701c0-6.8-6.101-9.5-13.701-9.5h-5.2V132.278z"/>
</g>
<g>
	<g>
		<path fill="#FBA919" d="M388.77,120.779c15.885-15.49,16.592-40.904,1.404-57.245c-15.188-16.34-40.586-17.49-57.194-2.781
			L388.77,120.779z"/>
		
			<ellipse transform="matrix(0.6808 0.7325 -0.7325 0.6808 178.8711 -233.1025)" fill="#FBA919" cx="356.883" cy="88.674" rx="54.75" ry="5"/>
	</g>
</g>
</svg>
