<?xml version="1.0" encoding="utf-8"?>
<!-- Generator: Adobe Illustrator 16.0.4, SVG Export Plug-In . SVG Version: 6.00 Build 0)  -->
<!DOCTYPE svg PUBLIC "-//W3C//DTD SVG 1.1//EN" "http://www.w3.org/Graphics/SVG/1.1/DTD/svg11.dtd">
<svg version="1.1" id="Layer_1" xmlns="http://www.w3.org/2000/svg" xmlns:xlink="http://www.w3.org/1999/xlink" x="0px" y="0px"
	 width="432px" height="288px" viewBox="0 0 432 288" enable-background="new 0 0 432 288" xml:space="preserve">
<path fill="#7F7F7F" d="M107.312,135.979l-43.345,76.086l5.635,3.21c2.197-3.287,6.59-4.369,10.078-2.381
	c3.489,1.987,4.799,6.318,3.091,9.884l5.514,3.142l43.345-76.087L107.312,135.979z"/>
<path fill="#7F7F7F" d="M100.145,148.646L56.8,224.731l5.635,3.21c2.197-3.287,6.59-4.369,10.078-2.381
	c3.489,1.987,4.799,6.318,3.091,9.884l5.514,3.142l43.345-76.087L100.145,148.646z"/>
<path fill="#FCCF86" d="M182.963,228.229c-3.233-5.707-3.948-12.312-1.598-14.764l43.968-45.784
	c2.351-2.446,6.876,0.194,10.114,5.903l11.706,20.661c3.238,5.706,3.952,12.312,1.604,14.763l-43.969,45.781
	c-2.353,2.444-6.878-0.195-10.112-5.9L182.963,228.229z"/>
<g>
	<path fill="#7F7F7F" d="M75.737,219.909c-6.713-3.823-15.256-1.48-19.08,5.23c-3.824,6.714-1.483,15.258,5.23,19.081
		c6.713,3.824,15.255,1.482,19.079-5.23C84.791,232.277,82.45,223.733,75.737,219.909z M75.421,235.83
		c-2.079,3.649-6.723,4.923-10.373,2.844c-3.649-2.08-4.923-6.724-2.844-10.374c2.08-3.649,6.724-4.923,10.373-2.843
		C76.227,227.536,77.501,232.181,75.421,235.83z"/>
	<g>
		<g>
			<polygon fill="#FBA919" points="144.249,137.304 123.088,137.42 112.404,119.151 122.882,100.765 144.044,100.646 
				154.729,118.915 			"/>
			<path fill="#F1F2F2" d="M137.947,111.349c4.242,2.418,5.722,7.82,3.303,12.064c-2.417,4.246-7.821,5.722-12.065,3.305
				c-4.244-2.418-5.722-7.822-3.304-12.064C128.301,110.41,133.702,108.931,137.947,111.349z"/>
		</g>
		<path fill="#7F7F7F" d="M156.396,119.104l-2.472,4.337l-8.912,15.637l-22.991,0.127l-11.608-19.844l8.913-15.641l2.471-4.336
			l5.275-9.253c-9.813,1.319-18.923,7.034-24.204,16.3c-8.989,15.772-3.492,35.844,12.28,44.83
			c15.772,8.99,35.844,3.491,44.833-12.278c5.281-9.268,5.555-20.017,1.688-29.133L156.396,119.104z"/>
	</g>
</g>
<g>
	<path fill="#FCCF86" d="M117.945,176.394c5.264,3.083,6.88,10.109,3.612,15.689l-15.787,26.942
		c-3.27,5.581-10.188,7.604-15.453,4.519l-24.36-14.273c-5.265-3.085-6.883-10.108-3.614-15.688l15.787-26.944
		c3.271-5.58,10.19-7.604,15.454-4.519L117.945,176.394z"/>
	<path fill="#FCCF86" d="M206.085,253.726c-2.977,3.117-10.135,3.839-15.981,1.613L80.705,213.691
		c-5.848-2.229-8.174-6.559-5.197-9.678l10.784-11.287c2.976-3.123,10.129-3.843,15.977-1.617l109.4,41.647
		c5.846,2.229,8.175,6.558,5.197,9.677L206.085,253.726z"/>
	<path fill="#3152A4" d="M240.297,233.895c-3.733,4.506-10.407,5.135-14.91,1.402l-36.73-30.391
		c-4.506-3.729-5.137-10.407-1.411-14.914l8.068-9.748c3.733-4.505,10.409-5.138,14.92-1.406l36.72,30.389
		c4.512,3.732,5.138,10.412,1.411,14.921L240.297,233.895z"/>
	<circle fill="#3152A4" cx="237.201" cy="186.027" r="32.811"/>
</g>
<rect x="-0.184" y="72.08" fill="none" width="431.873" height="76.096"/>
<text transform="matrix(1 0 0 1 51.5059 143.0786)" fill="#3152A4" font-family="'MyriadPro-Bold'" font-size="100">T   rcDB</text>
<g>
	<g>
		<path fill="#FBA919" d="M393.327,124.79c17.462-17.338,17.993-45.529,0.985-63.499c-17.007-17.97-45.184-18.992-63.457-2.514
			L393.327,124.79z"/>
		
			<ellipse transform="matrix(0.6874 0.7263 -0.7263 0.6874 176.8218 -231.7805)" fill="#FBA919" cx="357.645" cy="89.504" rx="60.72" ry="5.546"/>
	</g>
</g>
<rect x="90.163" y="199.446" transform="matrix(0.9781 0.2079 -0.2079 0.9781 46.1995 -25.0318)" fill="#FCCF86" width="104" height="15.572"/>
</svg>
